Coordinates
version=1
nRows=14
nColumns=33
inDegrees=yes

Units are S.I. units (second, meters, Newtons, ...)
Angles are in degrees.

endheader
time	ground_thorax_rot_x	ground_thorax_rot_y	ground_thorax_rot_z	ground_thorax_tx	ground_thorax_ty	ground_thorax_tz	clav_prot_r	clav_elev_r	scapula_abduction_r	scapula_elevation_r	scapula_upward_rot_r	scapula_winging_r	shoulder_elv_r	plane_of_elev_r	axial_rot_r	elbow_flexion_r	pro_sup_r	wrist_flex_r	wrist_dev_r	clav_prot_l	clav_elev_l	scapula_abduction_l	scapula_elevation_l	scapula_upward_rot_l	scapula_winging_l	shoulder_elv_l	plane_of_elev_l	axial_rot_l	elbow_flexion_l	pro_sup_l	wrist_flex_l	wrist_dev_l	
9.8200	-37.581909	-8.066686	14.426725	-74.123274	824.231600	-39.603362	22.688408	-45.000000	34.382983	-45.000000	-42.706782	-2617.209374	-465.397943	158.669298	23.601567	359.606616	158.580634	13.090530	14.840511	2.061222	28.698621	-27.789529	-45.000000	-45.000000	-4244.069204	-1343.691373	18.433587	-180.000000	-0.612981	176.543913	11.102487	-16.495005	
9.8300	-37.640896	-7.844639	14.020880	-74.986441	826.058100	-39.553961	22.569327	-45.000000	34.423159	-45.000000	-42.343376	-2617.259397	-465.398964	158.629594	23.326691	359.550456	158.022935	13.123661	14.831796	2.086291	28.727021	-27.893837	-45.000000	-45.000000	-4244.009443	-1343.578786	18.530962	-180.000000	-0.753583	175.884190	10.979568	-16.529879	
9.8400	-37.693765	-7.666512	13.658360	-75.794271	827.851869	-39.503168	22.470336	-45.000000	34.458630	-45.000000	-42.069569	-2617.313687	-465.398093	158.573406	23.051563	359.480132	157.481610	13.146921	14.819806	2.105986	28.758831	-27.977075	-45.000000	-45.000000	-4243.943059	-1343.461465	18.623279	-180.000000	-0.888422	175.227210	10.858703	-16.555830	
9.8500	-37.737127	-7.534310	13.351042	-76.547991	829.609010	-39.450918	22.383212	-45.000000	34.480674	-45.000000	-41.885063	-2617.368842	-465.386062	158.508318	22.774718	359.401518	156.954050	13.165012	14.798761	2.117662	28.791926	-28.048365	-45.000000	-45.000000	-4243.866753	-1343.350125	18.708604	-180.000000	-1.013201	174.577927	10.739258	-16.574209	
9.8600	-37.775390	-7.417682	13.060201	-77.248028	831.324777	-39.397346	22.305656	-45.000000	34.516637	-45.000000	-41.711314	-2617.425589	-465.372515	158.446646	22.504768	359.316183	156.449019	13.175807	14.775960	2.128976	28.826270	-28.111654	-45.000000	-45.000000	-4243.798686	-1343.239331	18.781297	-180.000000	-1.142345	173.946736	10.612214	-16.593357	
9.8700	-37.813125	-7.298485	12.772811	-77.894132	832.993680	-39.342797	22.228490	-45.000000	34.552279	-45.000000	-41.510521	-2617.481593	-465.359916	158.386718	22.243646	359.237528	155.971000	13.191478	14.744538	2.132792	28.858837	-28.178288	-45.000000	-45.000000	-4243.724122	-1343.130933	18.866277	-180.000000	-1.266586	173.343022	10.476562	-16.615103	
9.8800	-37.853088	-7.165850	12.469753	-78.485553	834.610009	-39.287761	22.149878	-45.000000	34.603002	-45.000000	-41.265830	-2617.539421	-465.354585	158.330976	22.012117	359.152165	155.528694	13.210140	14.714758	2.147580	28.889579	-28.243899	-45.000000	-45.000000	-4243.660525	-1343.015015	18.949564	-180.000000	-1.399118	172.768486	10.330085	-16.641154	
9.8900	-37.889509	-7.041838	12.181276	-79.021360	836.168105	-39.232814	22.065923	-45.000000	34.661763	-45.000000	-41.021902	-2617.595560	-465.346118	158.283162	21.801167	359.063024	155.118671	13.236796	14.687824	2.163697	28.918664	-28.311151	-45.000000	-45.000000	-4243.598870	-1342.906233	19.024049	-180.000000	-1.538080	172.222595	10.180101	-16.673118	
9.9000	-37.922875	-6.931687	11.908901	-79.500816	837.662785	-39.178541	21.984717	-45.000000	34.731136	-45.000000	-40.785803	-2617.650124	-465.338268	158.240915	21.607656	358.969899	154.739144	13.269946	14.668931	2.181952	28.946821	-28.373595	-45.000000	-45.000000	-4243.543728	-1342.802611	19.086847	-180.000000	-1.685773	171.709299	10.029607	-16.711624	
9.9100	-37.954888	-6.832021	11.651762	-79.923759	839.089584	-39.125553	21.904653	-45.000000	34.800032	-45.000000	-40.557009	-2617.698980	-465.331024	158.203144	21.422343	358.875691	154.388905	13.314734	14.657961	2.195674	28.973513	-28.434318	-45.000000	-45.000000	-4243.491937	-1342.703795	19.148183	-180.000000	-1.832540	171.237238	9.879547	-16.756664	
9.9200	-37.985282	-6.737917	11.407681	-80.290941	840.445288	-39.074491	21.828209	-45.000000	34.865619	-45.000000	-40.326315	-2617.746220	-465.326627	158.166124	21.248218	358.786435	154.070061	13.367921	14.655023	2.213250	28.996622	-28.488091	-45.000000	-45.000000	-4243.450656	-1342.605704	19.210871	-180.000000	-1.981502	170.811625	9.730596	-16.807977	
9.9300	-38.010429	-6.663012	11.195665	-80.603952	841.727816	-39.025996	21.750930	-45.000000	34.925779	-45.000000	-40.111827	-2617.787054	-465.314106	158.144155	21.081387	358.692920	153.781828	13.433067	14.663505	2.228619	29.019605	-28.541186	-45.000000	-45.000000	-4243.427743	-1342.517709	19.254964	-180.000000	-2.123377	170.431980	9.585286	-16.863800	
9.9400	-38.032466	-6.604773	11.012854	-80.865049	842.936121	-38.980566	21.680956	-45.000000	34.971204	-45.000000	-39.911090	-2617.825865	-465.301436	158.121070	20.918545	358.612541	153.522541	13.506866	14.674184	2.242621	29.035247	-28.585692	-45.000000	-45.000000	-4243.411185	-1342.433969	19.301252	-180.000000	-2.258937	170.098346	9.445039	-16.922638	
9.9500	-38.051502	-6.566773	10.856612	-81.076863	844.069966	-38.938342	21.609867	-45.000000	35.011852	-45.000000	-39.723348	-2617.852260	-465.283202	158.117030	20.758999	358.526385	153.296093	13.592298	14.696750	2.251271	29.053772	-28.634241	-45.000000	-45.000000	-4243.418104	-1342.362109	19.318897	-180.000000	-2.379306	169.810539	9.306973	-16.984247	
